<!-- Generator: Adobe Illustrator 19.2.1, SVG Export Plug-In  -->
<svg version="1.1"
	 xmlns="http://www.w3.org/2000/svg" xmlns:xlink="http://www.w3.org/1999/xlink" xmlns:a="http://ns.adobe.com/AdobeSVGViewerExtensions/3.0/"
	 x="0px" y="0px" width="25.5px" height="53.8px" viewBox="0 0 25.5 53.8" style="enable-background:new 0 0 25.5 53.8;"
	 xml:space="preserve">
<style type="text/css">
	.st0{fill:#3F3F41;stroke:#3F3F41;stroke-width:0.1289;stroke-miterlimit:10;}
	.st1{fill:#57585A;}
	.st2{fill:none;stroke:#57585A;stroke-width:0.2577;stroke-miterlimit:10;}
	.st3{fill:#FFFFFF;stroke:#3F3F41;stroke-width:0.1289;stroke-miterlimit:10;}
</style>
<defs>
</defs>
<g>
	<path class="st0" d="M21.3,0.1c3.1,0,3.9,1.8,3.9,3.4l-0.2,46.8c0,1.7-0.4,3.4-3.8,3.4L4,53.7c-3.9,0-3.9-2.5-3.9-3.5l0-46.7
		c0-1.7,1.4-3.5,3.6-3.5L21.3,0.1z"/>
	<path class="st1" d="M9.3,3.3c0,0.2-0.2,0.4-0.4,0.4c-0.2,0-0.4-0.2-0.4-0.4c0-0.2,0.2-0.4,0.4-0.4C9.2,2.9,9.3,3.1,9.3,3.3"/>
	<path class="st1" d="M12.9,1.5c0,0.1-0.1,0.3-0.3,0.3c-0.1,0-0.3-0.1-0.3-0.3c0-0.1,0.1-0.3,0.3-0.3C12.8,1.2,12.9,1.3,12.9,1.5"/>
	<path class="st1" d="M14.6,3.3c0-0.1-0.1-0.2-0.1-0.2l-3.4,0c-0.1,0-0.1,0.1-0.1,0.2c0,0.1,0.1,0.2,0.1,0.2l3.4,0
		C14.6,3.5,14.6,3.4,14.6,3.3z"/>
	
		<ellipse transform="matrix(1.325745e-03 -1 1 1.325745e-03 -37.8988 63.1766)" class="st2" cx="12.7" cy="50.6" rx="1.9" ry="1.9"/>
	<path class="st1" d="M25.5,13.7c0,0.1-0.1,0.1-0.1,0.1h0c-0.1,0-0.1-0.1-0.1-0.1l0-3.5c0-0.1,0-0.1,0.1-0.1h0
		c0.1,0,0.1,0.1,0.1,0.1L25.5,13.7z"/>
	<path class="st1" d="M0.1,8.8C0.1,8.8,0.1,8.9,0.1,8.8L0.1,8.8C0,8.9,0,8.8,0,8.8l0-2.5c0,0,0-0.1,0-0.1l0,0c0,0,0.1,0.1,0.1,0.1
		L0.1,8.8z"/>
	<path class="st1" d="M0.1,18.7C0.1,18.7,0.1,18.7,0.1,18.7L0.1,18.7C0,18.7,0,18.7,0,18.7l0-3.5c0-0.1,0-0.1,0-0.1h0
		c0,0,0.1,0.1,0.1,0.1L0.1,18.7z"/>
	<path class="st1" d="M0.1,13.7c0,0.1,0,0.1-0.1,0.1h0c0,0,0-0.1,0-0.1l0-3.5c0-0.1,0-0.1,0-0.1l0,0c0,0,0.1,0.1,0.1,0.1L0.1,13.7z"
		/>
	
		<rect x="-7.9" y="15.2" transform="matrix(1.330931e-03 -1 1 1.330931e-03 -14.0898 39.3749)" class="st3" width="41.1" height="23.2"/>
</g>
</svg>
