<!-- Generator: Adobe Illustrator 19.2.1, SVG Export Plug-In  -->
<svg version="1.1"
	 xmlns="http://www.w3.org/2000/svg" xmlns:xlink="http://www.w3.org/1999/xlink" xmlns:a="http://ns.adobe.com/AdobeSVGViewerExtensions/3.0/"
	 x="0px" y="0px" width="82.7px" height="104.9px" viewBox="0 0 82.7 104.9" style="enable-background:new 0 0 82.7 104.9;"
	 xml:space="preserve">
<style type="text/css">
	.st0{fill:#4A4F5D;}
	.st1{fill:#FFFFFF;}
	.st2{fill:#00FF00;}
	.st3{fill:#ED1C24;}
	.st4{fill:#FFFF00;}
</style>
<defs>
</defs>
<g>
	<path class="st0" d="M78.1,81.2H4.6c-2.5,0-4.6,2-4.6,4.6v14.5c0,2.5,2,4.6,4.6,4.6h73.5c2.5,0,4.6-2,4.6-4.6V85.8
		C82.7,83.3,80.6,81.2,78.1,81.2z"/>
	<rect x="7.3" y="87.2" class="st1" width="8.8" height="8.8"/>
	<circle class="st2" cx="54.2" cy="89.5" r="1.5"/>
	<circle class="st3" cx="64.2" cy="89.5" r="1.5"/>
	<circle class="st4" cx="74.2" cy="89.5" r="1.5"/>
	<path class="st0" d="M78.1,54.2H4.6c-2.5,0-4.6,2-4.6,4.6v14.5c0,2.5,2,4.6,4.6,4.6h73.5c2.5,0,4.6-2,4.6-4.6V58.7
		C82.7,56.2,80.6,54.2,78.1,54.2z"/>
	<rect x="7.3" y="60.2" class="st1" width="8.8" height="8.8"/>
	<circle class="st2" cx="54.2" cy="62.4" r="1.5"/>
	<circle class="st4" cx="64.2" cy="62.4" r="1.5"/>
	<circle class="st3" cx="74.2" cy="62.4" r="1.5"/>
	<path class="st0" d="M78.1,27.1H4.6c-2.5,0-4.6,2-4.6,4.6v14.5c0,2.5,2,4.6,4.6,4.6h73.5c2.5,0,4.6-2,4.6-4.6V31.6
		C82.7,29.1,80.6,27.1,78.1,27.1z"/>
	<rect x="7.3" y="33.1" class="st1" width="8.8" height="8.8"/>
	<circle class="st4" cx="54.2" cy="35.3" r="1.5"/>
	<circle class="st3" cx="64.2" cy="35.3" r="1.5"/>
	<circle class="st2" cx="74.2" cy="35.3" r="1.5"/>
	<path class="st0" d="M78.1,0H4.6C2,0,0,2,0,4.6v14.5c0,2.5,2,4.6,4.6,4.6h73.5c2.5,0,4.6-2,4.6-4.6V4.6C82.7,2,80.6,0,78.1,0z"/>
	<rect x="7.3" y="6" class="st1" width="8.8" height="8.8"/>
	<circle class="st3" cx="54.2" cy="8.2" r="1.5"/>
	<circle class="st2" cx="64.2" cy="8.2" r="1.5"/>
	<circle class="st4" cx="74.2" cy="8.2" r="1.5"/>
</g>
</svg>
