<!-- Generator: Adobe Illustrator 19.2.1, SVG Export Plug-In  -->
<svg version="1.1"
	 xmlns="http://www.w3.org/2000/svg" xmlns:xlink="http://www.w3.org/1999/xlink" xmlns:a="http://ns.adobe.com/AdobeSVGViewerExtensions/3.0/"
	 x="0px" y="0px" width="814.7px" height="942.1px" viewBox="0 0 814.7 942.1" style="enable-background:new 0 0 814.7 942.1;"
	 xml:space="preserve">
<style type="text/css">
	.st0{fill:#5EB523;}
</style>
<defs>
</defs>
<g>
	<path class="st0" d="M814.4,0c2.3,17.1-11.2,27.7-18.4,40c-41.9,72-85.7,143-128.5,214.4C614.3,343,559.9,430.9,511.8,522.4
		c-44.7,84.9-88.1,170.6-133.6,255.1C344.7,839.8,298.5,891.2,236,926c-12.6,7-26.9,10.8-40.4,16.1c-8,0-16,0-23.9,0
		c-29.2-3-43.3-22.1-51.4-48c-20.5-66-50.1-128.3-79.6-190.5C25.1,670.8,8.1,638.6,0,602.8c0-2.7,0-5.3,0-8
		c76.1-39.9,152.2-79.8,229.6-120.3c8.9,65,30.9,123.8,55.3,184.5c22.4-33.5,44.7-64.8,64.9-97.5
		c64.5-104.2,133.5-205.6,192.6-313.1c26.2-47.7,53.3-95,74-145.5c5.2-12.7,13.1-20.2,25.4-25.6C699.5,51.9,756.9,25.8,814.4,0z"/>
</g>
</svg>
