<svg id="Layer_1" data-name="Layer 1" xmlns="http://www.w3.org/2000/svg" xmlns:xlink="http://www.w3.org/1999/xlink" viewBox="0 0 364.2 295.37"><defs><style>.cls-1{fill:#6d6d6d;}.cls-2{fill:#212121;}.cls-3{fill:#848484;}.cls-4{fill:#fff;}.cls-5{fill:#383838;}.cls-6{fill:url(#linear-gradient);}</style><linearGradient id="linear-gradient" x1="181.71" y1="291.95" x2="181.71" y2="250.67" gradientUnits="userSpaceOnUse"><stop offset="0.77" stop-color="#848484"/><stop offset="0.8" stop-color="#232323"/></linearGradient></defs><title>device</title><path class="cls-1" d="M234.74,292H128.67c-4.37-.17-6-1.41-6-1.41v1.15a4.74,4.74,0,0,0,2.73,1.4,20.61,20.61,0,0,0,3.32.27H234.74a20.61,20.61,0,0,0,3.32-.27,4.74,4.74,0,0,0,2.73-1.4v-1.15S239.12,291.83,234.74,292Z"/><path class="cls-2" d="M363.2,216.5V8.74A8.74,8.74,0,0,0,354.45,0H8.74A8.74,8.74,0,0,0,0,8.74V216.5H363.2Z"/><path class="cls-3" d="M0,216.5v25.42a8.74,8.74,0,0,0,8.74,8.74H354.45a8.74,8.74,0,0,0,8.74-8.74V216.5H0Z"/><path class="cls-4" d="M182.91,5.61a1.26,1.26,0,1,1-1.26-1.26,1.26,1.26,0,0,1,1.26,1.26"/><rect class="cls-5" x="12.93" y="14.39" width="337.34" height="189.78"/><path class="cls-6" d="M239.6,288.83s-9.06-7.18-11.41-9.16c-4.42-3.31-5.08-14.48-5.08-14.48l-1.59-14.53H141.89L140.3,265.2s-0.66,11.16-5.08,14.48c-2.35,2-11.41,9.16-11.41,9.16s-1.37,1.05-1.17,1.71c0,0,1.67,1.24,6,1.41h106c4.37-.17,6-1.41,6-1.41C241,289.89,239.6,288.83,239.6,288.83Z"/></svg>