<svg id="Layer_1" data-name="Layer 1" xmlns="http://www.w3.org/2000/svg" viewBox="0 0 340.6 202.98"><defs><style>.cls-1{fill:#212121;}.cls-2{fill:#848484;}.cls-3{fill:#6d6d6d;}.cls-4{fill:#383838;}</style></defs><title>device</title><path class="cls-1" d="M314.53,11.45A11.64,11.64,0,0,0,302.89-.19L37.71,0.19A11.64,11.64,0,0,0,26.07,11.84v0.05h0V193.7H314.53V11.89h0V11.45Z"/><path class="cls-2" d="M332.06,193.7H8.54a37,37,0,0,0-8.54.75V200l0.37,0,9.41,0.44h321l9.41-.44,0.37,0v-5.57A37.06,37.06,0,0,0,332.06,193.7Z"/><path class="cls-3" d="M332.7,200.41l-3.28.08H11.18l-3.28-.08-7.58-.31s1.45,1.88,9.46,2.23h321c8-.35,9.46-2.23,9.46-2.23Z"/><rect class="cls-4" x="39.27" y="14.94" width="262.06" height="163.66"/><path class="cls-3" d="M143.86,193.69c0,0.08,0,.15,0,0.23v0.86a4.23,4.23,0,0,0,4.23,4.23h44.44a4.23,4.23,0,0,0,4.23-4.23v-0.86c0-.08,0-0.16,0-0.23H143.86Z"/></svg>