<!-- Generator: Adobe Illustrator 19.2.1, SVG Export Plug-In  -->
<svg version="1.1"
	 xmlns="http://www.w3.org/2000/svg" xmlns:xlink="http://www.w3.org/1999/xlink" xmlns:a="http://ns.adobe.com/AdobeSVGViewerExtensions/3.0/"
	 x="0px" y="0px" width="324.8px" height="171px" viewBox="0 0 324.8 171" style="enable-background:new 0 0 324.8 171;"
	 xml:space="preserve">
<style type="text/css">
	.st0{fill:#3F3F41;stroke:#3F3F41;stroke-width:0.2571;stroke-miterlimit:10;}
	.st1{fill:#7FCC8C;}
	.st2{fill:#56585A;}
	.st3{fill:#57585A;stroke:#57585A;stroke-width:0.2571;stroke-miterlimit:10;}
</style>
<defs>
</defs>
<g>
	<path class="st0" d="M283.8,165.2V9.2c0-5-4.1-9.1-9.1-9.1H50.1c-5,0-9.1,4.1-9.1,9.1v156H283.8z"/>
	<rect x="54.4" y="15.2" class="st1" width="216.1" height="135"/>
	<path class="st2" d="M164,9.3c0,0.9-0.7,1.6-1.6,1.6c-0.9,0-1.6-0.7-1.6-1.6c0-0.9,0.7-1.6,1.6-1.6C163.3,7.8,164,8.5,164,9.3"/>
	<rect x="0.1" y="165.2" class="st3" width="324.6" height="0.9"/>
	<path class="st0" d="M166.4,166h-8H0.1c0,0,24.9,5,50,4.8c1.3,0,5,0,5,0h103.3h8h103.3c0,0,3.8,0,5,0c25.1,0.2,50-4.8,50-4.8
		L166.4,166z"/>
	<g>
		<path class="st2" d="M218.3,168.1C218.3,168.1,218.3,168.1,218.3,168.1c0-0.5-0.4-0.9-0.8-0.9h-2.4c-0.4,0-0.8,0.4-0.8,0.8
			c0,0,0,0,0,0.1H218.3z"/>
		<path class="st2" d="M110.5,168.1C110.5,168.1,110.5,168.1,110.5,168.1c0-0.5-0.4-0.9-0.8-0.9h-2.4c-0.4,0-0.8,0.4-0.8,0.8
			c0,0,0,0,0,0.1H110.5z"/>
	</g>
	<path class="st2" d="M171.6,165.2h-18.4h-18.6v0.8c0,0,1.6,0.9,4.3,0.8c0.3,0,1,0,1,0h13.2h18.4h13.2c0,0,0.8,0,1,0
		c2.7,0,4.3-0.8,4.3-0.8v-0.8H171.6z"/>
</g>
</svg>
