<svg id="Layer_1" data-name="Layer 1" xmlns="http://www.w3.org/2000/svg" viewBox="0 0 53.25 109.76"><defs><style>.cls-1{fill:#848484;}.cls-2{fill:#fff;}.cls-3{fill:#6d6d6d;}.cls-4{fill:#383838;}</style></defs><title>device</title><path class="cls-1" d="M44.19,0c6.28,0,8,3.59,8,7.05l-0.32,95.72c0,3.39-.74,7-7.85,7l-35.18,0c-8,0-7.95-5.1-7.94-7.18L1,7.08A7.28,7.28,0,0,1,8.39,0Z"/><path class="cls-2" d="M19.64,6.65a0.76,0.76,0,1,1-.75-0.76,0.76,0.76,0,0,1,.75.76"/><path class="cls-2" d="M27,2.9a0.55,0.55,0,1,1-.55-0.55A0.55,0.55,0,0,1,27,2.9"/><path class="cls-2" d="M30.47,6.69a0.36,0.36,0,0,0-.28-0.41h-7a0.36,0.36,0,0,0-.29.41,0.36,0.36,0,0,0,.28.41h7A0.36,0.36,0,0,0,30.47,6.69Z"/><circle class="cls-3" cx="26.5" cy="103.28" r="3.88" transform="matrix(0, -1, 1, 0, -76.82, 129.64)"/><path class="cls-4" d="M52.68,28a0.32,0.32,0,0,1-.3.28H52.33A0.22,0.22,0,0,1,52.15,28V20.88a0.19,0.19,0,0,1,.18-0.24h0.05a0.3,0.3,0,0,1,.3.24V28Z"/><path class="cls-4" d="M0.83,17.84A0.12,0.12,0,0,1,.71,18h0c-0.08,0-.09,0-0.09-0.13V12.68c0-.08,0-0.23.09-0.23h0a0.23,0.23,0,0,1,.13.23v5.16Z"/><path class="cls-4" d="M0.81,38a0.14,0.14,0,0,1-.13.18h0c-0.08,0-.09-0.06-0.09-0.18V31c0-.12,0-0.23.09-0.23h0A0.21,0.21,0,0,1,.82,31V38Z"/><path class="cls-4" d="M0.82,27.92a0.22,0.22,0,0,1-.13.25h0C0.59,28.16.58,28,.58,27.92V20.86c0-.12,0-0.29.09-0.29h0a0.29,0.29,0,0,1,.13.29v7.06Z"/><rect class="cls-4" x="-15.6" y="30.87" width="84.15" height="47.38" transform="translate(-28.12 80.96) rotate(-89.92)"/></svg>