<!-- Generator: Adobe Illustrator 19.2.1, SVG Export Plug-In  -->
<svg version="1.1"
	 xmlns="http://www.w3.org/2000/svg" xmlns:xlink="http://www.w3.org/1999/xlink" xmlns:a="http://ns.adobe.com/AdobeSVGViewerExtensions/3.0/"
	 x="0px" y="0px" width="236px" height="236.1px" viewBox="0 0 236 236.1" style="enable-background:new 0 0 236 236.1;"
	 xml:space="preserve">
<style type="text/css">
	.st0{fill:#D3D3D3;}
	.st1{fill:#BABABA;}
	.st2{fill:none;stroke:#C1272D;stroke-width:3.3842;stroke-miterlimit:10;}
</style>
<defs>
</defs>
<g>
	<g>
		<path class="st0" d="M202,200.9c21-21.3,34-50.6,34-82.9s-13-61.6-34-82.9v-0.4c0,0.1,0.1,0.1,0,0.2c-0.1-0.1,0-0.1,0-0.2v0.4
			c-21,21.3-34,50.6-34,82.9S181,179.6,202,200.9v0.4c0-0.1-0.1-0.1,0-0.2c0.1,0.1,0,0.1,0,0.2V200.9z"/>
		<path class="st0" d="M201.6,34.8C180.2,13.3,150.6,0,117.9,0C85,0,55.3,13.4,33.9,35.1C55,56.4,68,85.7,68,118s-13,61.7-34.1,83
			c21.4,21.6,51.1,35.1,83.9,35.1c32.7,0,62.3-13.3,83.7-34.8c-21.2-21.3-34.4-50.8-34.4-83.3S180.3,56.1,201.6,34.8z"/>
		<path class="st0" d="M34,200.9c21-21.3,34-50.6,34-82.9S55,56.5,34,35.2v-0.1c0,0,0,0,0,0.1c0,0,0,0,0-0.1v0.1
			C13,56.5,0,85.7,0,118S13,179.6,34,200.9v0.1C34,201,34,201,34,200.9c0,0.1,0,0.1,0,0.1V200.9z"/>
	</g>
	<g>
		<path class="st1" d="M223.2,114.8c-6.3,19.4-17.1,36.2-32.4,50.4c-2.8,3-5.8,5.9-8.8,8.6c5.4,10,12.1,19.1,20,27.1
			c21-21.3,34-50.6,34-82.9c0-9.5-1.1-18.7-3.2-27.5C230.5,98.9,227.3,107,223.2,114.8z"/>
		<path class="st1" d="M140.4,197.6c-18.7,9.8-38.8,14.3-60.4,13.5c-14.2,0-28-1.9-41.2-5.5c20.9,18.9,48.7,30.4,79.1,30.4
			c32.7,0,62.3-13.3,83.7-34.8c-7.9-8-14.7-17-20.1-27C169.4,184.9,155.7,192.7,140.4,197.6z"/>
	</g>
	<path class="st2" d="M201.6,34.8c-21.2,21.3-34.4,50.8-34.4,83.3s13.1,61.9,34.4,83.3"/>
	<path class="st2" d="M33.9,201C55,179.7,68,150.4,68,118s-13-61.7-34.1-83"/>
</g>
</svg>
