<!-- Generator: Adobe Illustrator 19.2.1, SVG Export Plug-In  -->
<svg version="1.1"
	 xmlns="http://www.w3.org/2000/svg" xmlns:xlink="http://www.w3.org/1999/xlink" xmlns:a="http://ns.adobe.com/AdobeSVGViewerExtensions/3.0/"
	 x="0px" y="0px" width="97.3px" height="65.8px" viewBox="0 0 97.3 65.8" style="enable-background:new 0 0 97.3 65.8;"
	 xml:space="preserve">
<style type="text/css">
	.st0{fill:#3F3F41;stroke:#3F3F41;stroke-width:0.1561;stroke-miterlimit:10;}
	.st1{fill:#FFFFFF;stroke:#3F3F41;stroke-width:0.1561;stroke-miterlimit:10;}
	.st2{fill:none;stroke:#57585A;stroke-width:0.3122;stroke-miterlimit:10;}
	.st3{fill:#57585A;}
</style>
<defs>
</defs>
<g>
	<path class="st0" d="M97.2,60.8c0,3.8-2.2,4.9-4.3,4.9L4.4,65.6c-2.1,0-4.3-0.4-4.3-4.8V5c0-4.9,3.1-4.9,4.4-4.9l88.3,0
		c2.1,0,4.3,1.8,4.3,4.5L97.2,60.8z"/>
	<rect x="9.6" y="3.4" class="st1" width="77.9" height="58.9"/>
	<circle class="st2" cx="4.8" cy="32.9" r="2.4"/>
	<g>
		<path class="st3" d="M92.2,33.6c-0.4,0-0.7-0.3-0.7-0.7c0-0.4,0.3-0.7,0.7-0.7c0.4,0,0.7,0.3,0.7,0.7
			C92.9,33.3,92.5,33.6,92.2,33.6"/>
	</g>
</g>
</svg>
