<!-- Generator: Adobe Illustrator 19.2.1, SVG Export Plug-In  -->
<svg version="1.1"
	 xmlns="http://www.w3.org/2000/svg" xmlns:xlink="http://www.w3.org/1999/xlink" xmlns:a="http://ns.adobe.com/AdobeSVGViewerExtensions/3.0/"
	 x="0px" y="0px" width="137.9px" height="492.3px" viewBox="0 0 137.9 492.3" style="enable-background:new 0 0 137.9 492.3;"
	 xml:space="preserve">
<style type="text/css">
	.st0{fill:none;}
	.st1{fill:#EB804B;}
	.st2{fill:#4D1910;}
	.st3{fill:#F9C195;}
	.st4{fill:#EDA884;}
	.st5{fill:url(#SVGID_1_);}
	.st6{fill:url(#SVGID_2_);}
</style>
<defs>
	
		<pattern  x="-1571.1" y="-3168" width="100" height="100" patternUnits="userSpaceOnUse" id="New_Pattern_Swatch_2" viewBox="0 -100 100 100" style="overflow:visible;">
		<g>
			<rect y="-100" class="st0" width="100" height="100"/>
			<rect y="-100" class="st1" width="100" height="25"/>
			<rect y="-75" class="st1" width="100" height="25"/>
			<rect y="-50" class="st1" width="100" height="25"/>
			<rect y="-25" class="st1" width="100" height="25"/>
			<path class="st2" d="M50-87.7L62.3-100h1.4L50-86.3L38.7-75h-1.4L50-87.7z M33.5-75l25-25H60L35-75H33.5z M26.1-75l25-25h1.4
				l-25,25H26.1z M29.8-75l25-25h1.4L50-93.7L31.3-75H29.8z M50-76.6L73.4-100h1.4L50-75.2v0L49.8-75h-1.4L50-76.6z M50-80.3
				L69.7-100h1.4L50-78.9L46.1-75h-1.4L50-80.3z M41-75l25-25h1.4L50-82.6L42.4-75H41z M61.8-50l-25,25h-1.4l25-25h0L75-64.6v1.4
				L61.8-50z M75.2-50h1.4L75-48.4v0l-25,25v-1.4l0.2-0.2L75-49.8L75.2-50z M19.7-89.3L0-69.7v-1.4L3.9-75h0l17.2-17.2l3.9-3.9
				l3.9-3.9h1.4L19.7-89.3z M14.6-25L0-10.4v-1.4L13.2-25h0l25-25h1.4L14.6-25z M16.4-75L0-58.6V-60l25-25v0l15-15h1.4L16.4-75z
				 M90-50h1.4L75-33.6L66.4-25L50-8.6V-10l15-15h0L90-50z M78.9-50h1.4L75-44.7v0l-25,25v-1.4l3.9-3.9h0L78.9-50z M86.3-50h1.4
				L75-37.3v0l-25,25v-1.4L61.3-25h0L86.3-50z M82.6-50H84l-9,9L50-16v-1.4l7.6-7.6L82.6-50z M63.2-75l25-25h1.4L75-85.4v0l-25,25
				v-1.4L63.2-75L63.2-75z M92.8-75l7.2-7.2v1.4L94.2-75H92.8z M89.1-75L100-85.9v1.4L90.5-75H89.1z M85.4-75L100-89.6v1.4L86.8-75
				H85.4z M76.1-25L100-48.9v1.4L77.6-25H76.1z M96.5-75l3.5-3.5v1.4L97.9-75H96.5z M100-100v0.7L75.7-75H75v0.7L50.7-50L50-49.3
				L25.7-25H25v0.7L0.7,0H0v-0.7L24.3-25h0l25-25H50v-0.7L74.3-75l25-25H100z M81.7-75L100-93.3v1.4L83.1-75H81.7z M78-75l22-22v1.4
				L79.4-75H78z M98.9-50L75-26.1v0l-25,25v-1.4L72.4-25h0l25-25H98.9z M94.7-25l5.3-5.3v1.4L96.1-25H94.7z M91-25l9-9v1.4L92.4-25
				H91z M98.4-25l1.6-1.6v1.4L99.8-25H98.4z M83.6-25L100-41.4v1.4L85-25H83.6z M79.8-25L100-45.2v1.4L81.3-25H79.8z M87.3-25
				L100-37.7v1.4L88.7-25H87.3z M25-65L0-40v-1.4L8.5-50h0L25-66.4V-65z M25-68.7l-25,25v-1.4L4.8-50h0L25-70.2V-68.7z M25-72.4
				l-25,25v-1.4L1.1-50L25-73.9V-72.4z M17.4-50L0-32.6V-34l16-16h0l9-9v1.4L17.4-50z M25-53.9l-25,25v-1.4L19.7-50h0l5.3-5.3V-53.9
				z M25-61.3l-25,25v-1.4L12.3-50h0L25-62.7V-61.3z M25-98.4l-25,25v-1.4L0.2-75h0l25-25h1.4L25-98.4L25-98.4z M25-50.2l-25,25
				v-1.4L23.4-50h0l1.6-1.6V-50.2z M52.1-75L75-97.9l2.1-2.1h1.4l-7,7L50-71.5v-1.4L52.1-75z M25-76.1l-25,25v-1.4L22.4-75h0l25-25
				h1.4L25-76.1L25-76.1z M25-91L0-66v-1.4L7.6-75h0l25-25H34L25-91z M25-87.3l-25,25v-1.4L11.3-75l2.3-2.3L25-88.7L36.3-100h1.4
				L25-87.3L25-87.3z M25-79.8l-25,25v-1.4L18.7-75l6.3-6.3L43.7-100h1.4L25-79.8L25-79.8z M54.8,0L75-20.2v1.4L56.3,0H54.8z
				 M50-45.6L29.4-25H28l25-25h0l22-22v1.4L50-45.6L50-45.6z M50-27.1L47.9-25h-1.4l25-25h0l3.5-3.5v1.4L50-27.1L50-27.1z M50-34.5
				L40.5-25h-1.4l25-25h0L75-60.9v1.4L50-34.5L50-34.5z M69.7,0L75-5.3v1.4L71.1,0H69.7z M50-6.3L68.7-25h0l25-25h1.4L75-29.8v0
				l-25,25V-6.3z M73.4,0L75-1.6v1.4L74.8,0H73.4z M66,0l9-9v1.4L67.4,0H66z M58.6,0L75-16.4v1.4L60,0H58.6z M51.1,0L75-23.9v1.4
				L52.6,0H51.1z M62.3,0L75-12.7v1.4L63.7,0H62.3z M25-39.1l-25,25v-1.4L9.5-25L25-40.5l9.5-9.5h1.4L25-39.1L25-39.1z M17.8,0
				L25-7.2v1.4L19.2,0H17.8z M21.5,0L25-3.5v1.4L22.9,0H21.5z M14.1,0L25-10.9v1.4L15.5,0H14.1z M25-28L0-3v-1.4L20.6-25l4.4-4.4
				L45.6-50H47L25-28L25-28z M3,0l22-22v1.4L4.4,0H3z M25-42.8l-25,25v-1.4L5.8-25h0l25-25h1.4L25-42.8L25-42.8z M25-46.5l-25,25
				v-1.4L2.1-25h0l25-25h1.4L25-46.5L25-46.5z M25-31.7L0-6.7v-1.4L16.9-25l8.1-8.1L41.9-50h1.4L25-31.7L25-31.7z M10.4,0L25-14.6
				v1.4L11.8,0H10.4z M6.7,0L25-18.3v1.4L8.1,0H6.7z M75-90.5l9.5-9.5h1.4L75-89.1L60.9-75L50-64.1v-1.4l9.5-9.5L75-90.5z M22.9-100
				L0-77.1v-1.4L21.5-100H22.9z M50-41.9L33.1-25h-1.4L50-43.3l6.7-6.7L75-68.3v1.4L58.1-50L50-41.9z M75-94.2l5.8-5.8h1.4L75-92.8
				L57.2-75L50-67.8v-1.4l5.8-5.8L75-94.2z M75-79.4L95.6-100H97L75-78L50-53v-1.4L70.6-75L75-79.4z M0.7-100L0-99.3v-0.7H0.7z
				 M75-83.1L91.9-100h1.4L75-81.7v0l-25,25v-1.4L66.9-75L75-83.1z M50-30.8L44.2-25h-1.4l25-25l7.2-7.2v1.4L69.2-50L50-30.8z
				 M19.2-100L0-80.8v-1.4L17.8-100H19.2z M8.1-100L0-91.9v-1.4l6.7-6.7H8.1z M4.4-100L0-95.6V-97l3-3H4.4z M15.5-100L0-84.5v-1.4
				L14.1-100H15.5z M11.8-100L0-88.2v-1.4L10.4-100H11.8z"/>
			<rect y="-100" class="st2" width="25" height="25"/>
			<rect x="50" y="-100" class="st2" width="25" height="25"/>
			<rect y="-50" class="st2" width="25" height="25"/>
			<rect x="50" y="-50" class="st2" width="25" height="25"/>
		</g>
	</pattern>
</defs>
<path class="st3" d="M53.4,124c-5.1,0-10.5,0.7-15.7,2.1C35,118.4,27.9,113,19.6,113c-10.7,0-19.3,9-19.3,20.2
	c0,6.1,2.6,11.5,6.6,15.2c-2.1,4.8-2.5,10.2-0.6,16c7.5,23,13.8,48.7,34.2,48.7c24.6,0,57.5-19.9,57.5-44.5S78,124,53.4,124z"/>
<path class="st3" d="M5.5,161.1c0,0-4.3-10.8-5.2-16.6s0.5-15.8,0.5-15.8l25.6-1.9L5.5,161.1z"/>
<path class="st3" d="M51.2,112H24.9V13.1C24.9,5.9,30.8,0,38.1,0h0c7.3,0,13.1,5.9,13.1,13.1V112z"/>
<path class="st3" d="M112.9,112H82.8V99.4c0-8.3,6.7-15.1,15.1-15.1h0c8.3,0,15.1,6.7,15.1,15.1V112z"/>
<polygon class="st4" points="25.4,117.5 19.6,137.9 26.3,147 "/>
<path class="st4" d="M37.6,0L37.6,0c-0.5,0-0.9,0-1.4,0.1c6.6,0.7,11.7,6.4,11.7,13.2V112h3V13.3C50.9,5.9,44.8,0,37.6,0z"/>
<g>
	<path class="st3" d="M82.8,113H50.5V93.5c0-8.8,7.1-15.9,15.9-15.9h0.5c8.8,0,15.9,7.1,15.9,15.9V113z"/>
	<path class="st4" d="M66.7,78L66.7,78c-0.5,0-0.9-0.2-1.4-0.1c8.2,0.8,14.7,7.2,14.7,15.4V113h3V93.2C82.9,84.6,75.6,78,66.7,78z"
		/>
</g>
<path class="st4" d="M97.9,84.3c-0.3,0-0.7,0-1,0.1c7.9,0.5,14.1,7,14.1,15V112h2V99.4C112.9,91,106.2,84.3,97.9,84.3z"/>
<g>
	<rect x="34.4" y="213" class="st3" width="84" height="29"/>
	<path class="st3" d="M125.5,93L125.5,93c-6.9,0-12.5,6-12.5,13v6h-88l9.5,101h84c0,0,19.5-25.7,19.5-50.5V121v-9v-6
		C137.9,99,132.5,93,125.5,93z"/>
	<g>
		<path class="st4" d="M125.5,93c-0.5,0-1,0-1.5,0.1c6.2,0.8,10.9,6.4,10.9,12.9v6v9v41.5c0,24.8-19.5,50.5-19.5,50.5h3
			c0,0,19.5-25.7,19.5-50.5V121v-9v-6C137.9,99,132.5,93,125.5,93z"/>
		<path class="st4" d="M125.5,93C125.5,93,125.5,93,125.5,93C125.5,93,125.5,93,125.5,93L125.5,93z"/>
	</g>
	<rect x="115.4" y="213" class="st4" width="3" height="29"/>
</g>
<pattern  id="SVGID_1_" xlink:href="#New_Pattern_Swatch_2" patternTransform="matrix(1.1871 0 0 1.1976 1323.7762 1328.869)">
</pattern>
<rect x="13.2" y="242" class="st5" width="124.8" height="250.3"/>
</svg>
