<!-- Generator: Adobe Illustrator 19.2.1, SVG Export Plug-In  -->
<svg version="1.1"
	 xmlns="http://www.w3.org/2000/svg" xmlns:xlink="http://www.w3.org/1999/xlink" xmlns:a="http://ns.adobe.com/AdobeSVGViewerExtensions/3.0/"
	 x="0px" y="0px" width="129.6px" height="104.7px" viewBox="0 0 129.6 104.7" style="enable-background:new 0 0 129.6 104.7;"
	 xml:space="preserve">
<style type="text/css">
	.st0{fill:#3F3F41;stroke:#3F3F41;stroke-width:9.400285e-02;stroke-miterlimit:10;}
	.st1{fill:#C1C1C1;}
	.st2{fill:#57585A;stroke:#57585A;stroke-width:9.400285e-02;stroke-miterlimit:10;}
	.st3{fill:#57585A;}
	.st4{fill:#FFFFFF;stroke:#3F3F41;stroke-width:0.105;stroke-miterlimit:10;}
	.st5{fill:url(#SVGID_1_);}
	.st6{fill:url(#SVGID_2_);}
</style>
<defs>
</defs>
<g>
	<path class="st0" d="M129.6,77.3V3.2c0-1.7-1.4-3.1-3.1-3.1H3.2C1.4,0,0,1.4,0,3.2v74.1H129.6z"/>
	<path class="st1" d="M0,77.3v9.1c0,1.7,1.4,3.1,3.1,3.1h123.3c1.7,0,3.1-1.4,3.1-3.1v-9.1H0z"/>
	<path class="st2" d="M83.8,104.2h-2.6H48.5h-2.6c-1.6-0.1-2.2-0.5-2.2-0.5v0.4c0,0,0.3,0.4,1,0.5c0.7,0.1,1.2,0.1,1.2,0.1h2.6h32.7
		h2.6c0,0,0.5,0,1.2-0.1c0.6-0.1,1-0.5,1-0.5v-0.4C85.9,103.7,85.3,104.1,83.8,104.2z"/>
	<path class="st3" d="M65.3,2c0,0.2-0.2,0.4-0.4,0.4c-0.2,0-0.4-0.2-0.4-0.4c0-0.2,0.2-0.4,0.4-0.4C65.1,1.6,65.3,1.8,65.3,2"/>
	<rect x="4.7" y="5.2" class="st4" width="120.3" height="67.7"/>
	<linearGradient id="SVGID_1_" gradientUnits="userSpaceOnUse" x1="64.8576" y1="89.4535" x2="64.8576" y2="104.1777">
		<stop  offset="9.996811e-02" style="stop-color:#666666"/>
		<stop  offset="0.2169" style="stop-color:#C2C2C2"/>
	</linearGradient>
	<path class="st5" d="M85.5,103.1c0,0-3.2-2.6-4.1-3.3c-1.6-1.2-1.8-5.2-1.8-5.2l-0.6-5.2H67.7H62H50.7l-0.6,5.2c0,0-0.2,4-1.8,5.2
		c-0.8,0.7-4.1,3.3-4.1,3.3s-0.5,0.4-0.4,0.6c0,0,0.6,0.4,2.2,0.5h2.6H62h5.7h13.5h2.6c1.6-0.1,2.2-0.5,2.2-0.5
		C86,103.4,85.5,103.1,85.5,103.1z"/>
</g>
</svg>
