<!-- Generator: Adobe Illustrator 19.2.1, SVG Export Plug-In  -->
<svg version="1.1"
	 xmlns="http://www.w3.org/2000/svg" xmlns:xlink="http://www.w3.org/1999/xlink" xmlns:a="http://ns.adobe.com/AdobeSVGViewerExtensions/3.0/"
	 x="0px" y="0px" width="157.8px" height="120.4px" viewBox="0 0 157.8 120.4" style="enable-background:new 0 0 157.8 120.4;"
	 xml:space="preserve">
<style type="text/css">
	.st0{fill:#27ADC3;}
</style>
<defs>
</defs>
<g>
	<path class="st0" d="M85.4,106.3c-1.6-1.8-3.9-3-6.5-3s-5,1.2-6.5,3c-1.3,1.5-2.1,3.5-2.1,5.6c0,4.8,3.9,8.6,8.6,8.6
		c4.8,0,8.6-3.9,8.6-8.6C87.5,109.7,86.7,107.8,85.4,106.3z"/>
	<path class="st0" d="M60.7,93.7c4.9-4.9,11.3-7.5,18.2-7.5s13.3,2.7,18.2,7.5c0.1,0.1,0.2,0.2,0.4,0.4l12.1-12.4
		c-7.8-7.9-18.7-12.9-30.7-12.9c-12,0-22.9,4.9-30.7,12.9L60.4,94C60.5,93.9,60.6,93.8,60.7,93.7z"/>
	<path class="st0" d="M78.9,51.1C95.7,51.1,111,58,122,69l11.7-11.9c-14-14-33.4-22.7-54.8-22.7c-21.4,0-40.8,8.7-54.8,22.7L35.8,69
		C46.8,58,62.1,51.1,78.9,51.1z"/>
	<path class="st0" d="M78.9,17.2c26.1,0,49.7,10.6,66.8,27.6l12.1-12.3C137.6,12.4,109.7,0,78.9,0C48.1,0,20.2,12.4,0,32.6
		l12.1,12.3C29.2,27.8,52.8,17.2,78.9,17.2z"/>
</g>
</svg>
