<!-- Generator: Adobe Illustrator 19.2.1, SVG Export Plug-In  -->
<svg version="1.1"
	 xmlns="http://www.w3.org/2000/svg" xmlns:xlink="http://www.w3.org/1999/xlink" xmlns:a="http://ns.adobe.com/AdobeSVGViewerExtensions/3.0/"
	 x="0px" y="0px" width="135.7px" height="80.8px" viewBox="0 0 135.7 80.8" style="enable-background:new 0 0 135.7 80.8;"
	 xml:space="preserve">
<style type="text/css">
	.st0{fill:#3F3F41;stroke:#3F3F41;stroke-width:0.105;stroke-miterlimit:10;}
	.st1{fill:#999999;}
	.st2{fill:#FFFFFF;stroke:#3F3F41;stroke-width:0.105;stroke-miterlimit:10;}
	.st3{fill:#3F3F41;}
</style>
<defs>
</defs>
<g>
	<path class="st0" d="M125.3,4.7c0-2.6-2.1-4.6-4.6-4.6L15,0.2c-2.6,0-4.6,2.1-4.6,4.6l0,0h0v72.4h2.5h109.8h2.5V4.9h0L125.3,4.7z"
		/>
	<path class="st1" d="M132.3,77.3L132.3,77.3h-7c0,0,0,0,0,0l-26.9,0H72.9H61.8l0,0l-58.3,0h0c-2.3,0-3.4,0.3-3.4,0.3v2.2l0.1,0
		L3.9,80h7.2l77.4,0h36.1h0.2h3.5l0,0l0.4,0v0h3.1l3.7-0.2l0.1,0v-2.2C135.7,77.6,134.5,77.3,132.3,77.3z"/>
	<path class="st0" d="M132.5,80l-1.3,0h-6.6H61.8l0,0l-50.7,0H4.5l-1.3,0l-3-0.1c0,0,0.6,0.7,3.8,0.9h7.2h77.4H95l0,0h29.6h7.2
		c3.2-0.1,3.8-0.9,3.8-0.9L132.5,80z"/>
	<rect x="15.6" y="6.1" class="st2" width="104.4" height="65.2"/>
	<path class="st3" d="M57.3,77.3C57.3,77.3,57.3,77.4,57.3,77.3l0,0.4c0,0.9,0.8,1.7,1.7,1.7h17.7c0.9,0,1.7-0.8,1.7-1.7v-0.3
		c0,0,0-0.1,0-0.1H57.3z"/>
</g>
</svg>
