<!-- Generator: Adobe Illustrator 19.2.1, SVG Export Plug-In  -->
<svg version="1.1"
	 xmlns="http://www.w3.org/2000/svg" xmlns:xlink="http://www.w3.org/1999/xlink" xmlns:a="http://ns.adobe.com/AdobeSVGViewerExtensions/3.0/"
	 x="0px" y="0px" width="146.6px" height="300.8px" viewBox="0 0 146.6 300.8" style="enable-background:new 0 0 146.6 300.8;"
	 xml:space="preserve">
<style type="text/css">
	.st0{fill:#A3A3A3;}
	.st1{fill:#CECECE;}
</style>
<defs>
</defs>
<path class="st0" d="M73.3,0C32.8,0,0,32.8,0,73.3c0,40.5,32.8,73.3,73.3,73.3s73.3-32.8,73.3-73.3"/>
<path class="st0" d="M73.3,31.2c8.8,0,16,7.2,16,16c0,8.8-7.2,16-16,16s-16-7.2-16-16C57.3,38.4,64.5,31.2,73.3,31.2"/>
<path class="st1" d="M73.3,13.3c-33.1,0-60,26.8-60,60c0,33.1,26.8,60,60,60s60-26.8,60-60"/>
<path class="st1" d="M73.3,31.2c8.8,0,16,7.2,16,16c0,8.8-7.2,16-16,16s-16-7.2-16-16C57.3,38.4,64.5,31.2,73.3,31.2"/>
<polyline class="st0" points="101.2,282.8 92,273.8 101.2,264.8 91.7,254.8 101.3,246.5 92,236.5 101.3,228.1 91,218.8 101.3,210.1 
	91.7,199.8 101.3,191.1 91.1,181.8 100.1,173.5 100.1,141.8 45.1,141.8 45.1,300.8 "/>
</svg>
