<!-- Generator: Adobe Illustrator 19.2.1, SVG Export Plug-In  -->
<svg version="1.1"
	 xmlns="http://www.w3.org/2000/svg" xmlns:xlink="http://www.w3.org/1999/xlink" xmlns:a="http://ns.adobe.com/AdobeSVGViewerExtensions/3.0/"
	 x="0px" y="0px" width="146.6px" height="300.8px" viewBox="0 0 146.6 300.8" style="enable-background:new 0 0 146.6 300.8;"
	 xml:space="preserve">
<style type="text/css">
	.st0{fill:#A3A3A3;}
	.st1{fill:#CECECE;}
</style>
<defs>
</defs>
<path class="st0" d="M0,73.3c0,40.5,32.8,73.3,73.3,73.3s73.3-32.8,73.3-73.3C146.6,32.8,113.8,0,73.3,0"/>
<path class="st0" d="M73.3,0C32.8,0,0,32.8,0,73.3"/>
<circle class="st0" cx="73.3" cy="47.3" r="16"/>
<path class="st1" d="M13.3,73.3c0,33.1,26.8,60,60,60s60-26.8,60-60c0-33.1-26.8-60-60-60S13.3,40.2,13.3,73.3"/>
<circle class="st1" cx="73.3" cy="47.3" r="16"/>
<polyline class="st0" points="100.1,173.5 100.1,141.8 45.1,141.8 45.1,300.8 "/>
</svg>
