<!-- Generator: Adobe Illustrator 19.2.1, SVG Export Plug-In  -->
<svg version="1.1"
	 xmlns="http://www.w3.org/2000/svg" xmlns:xlink="http://www.w3.org/1999/xlink" xmlns:a="http://ns.adobe.com/AdobeSVGViewerExtensions/3.0/"
	 x="0px" y="0px" width="354.6px" height="286.4px" viewBox="0 0 354.6 286.4" style="enable-background:new 0 0 354.6 286.4;"
	 xml:space="preserve">
<style type="text/css">
	.st0{fill:#3F3F41;stroke:#3F3F41;stroke-width:0.2571;stroke-miterlimit:10;}
	.st1{fill:#C1C1C1;}
	.st2{fill:#57585A;stroke:#57585A;stroke-width:0.2571;stroke-miterlimit:10;}
	.st3{fill:#57585A;}
	.st4{fill:#757575;}
	.st5{fill:url(#SVGID_1_);}
	.st6{fill:url(#SVGID_2_);}
</style>
<defs>
</defs>
<path class="st0" d="M354.4,211.3V8.7c0-4.7-3.8-8.5-8.5-8.5H8.7c-4.7,0-8.5,3.8-8.5,8.5v202.7H354.4z"/>
<path class="st1" d="M0.1,211.3v24.8c0,4.7,3.8,8.5,8.5,8.5h337.2c4.7,0,8.5-3.8,8.5-8.5v-24.8H0.1z"/>
<path class="st2" d="M229.1,284.9h-7h-89.4h-7c-4.3-0.2-5.9-1.4-5.9-1.4v1.1c0,0,0.9,1.1,2.7,1.4c1.9,0.3,3.2,0.3,3.2,0.3h7h89.4h7
	c0,0,1.3,0,3.2-0.3c1.7-0.3,2.7-1.4,2.7-1.4v-1.1C235,283.6,233.4,284.8,229.1,284.9z"/>
<path class="st3" d="M178.6,5.6c0,0.7-0.6,1.2-1.2,1.2c-0.7,0-1.2-0.6-1.2-1.2c0-0.7,0.6-1.2,1.2-1.2C178,4.4,178.6,4.9,178.6,5.6"
	/>
<rect x="12.7" y="14.2" class="st4" width="329.1" height="185.1"/>
<linearGradient id="SVGID_1_" gradientUnits="userSpaceOnUse" x1="177.3867" y1="244.6568" x2="177.3867" y2="284.9276">
	<stop  offset="9.996811e-02" style="stop-color:#666666"/>
	<stop  offset="0.2169" style="stop-color:#C2C2C2"/>
</linearGradient>
<path class="st5" d="M233.9,281.9c0,0-8.8-7-11.1-8.9c-4.3-3.2-5-14.1-5-14.1l-1.6-14.2h-31.1h-15.5h-31.1l-1.6,14.2
	c0,0-0.6,10.9-5,14.1c-2.3,1.9-11.1,8.9-11.1,8.9s-1.3,1-1.1,1.7c0,0,1.6,1.2,5.9,1.4h7h36.9h15.5h36.9h7c4.3-0.2,5.9-1.4,5.9-1.4
	C235.2,282.9,233.9,281.9,233.9,281.9z"/>
</svg>
